<svg width="67" height="65" viewBox="0 0 67 65" fill="none" xmlns="http://www.w3.org/2000/svg">
<path fill-rule="evenodd" clip-rule="evenodd" d="M3.5847 8.71241H56.5586V60.7082H3.5847V8.71241ZM0 64.393V5.02767H60.1433V64.393H0ZM12.5508 34.5498C13.0885 34.1305 13.3574 33.4902 13.3574 32.6289C13.3574 31.7812 13.0885 31.1455 12.5508 30.7217C12.013 30.2933 11.2542 30.0791 10.2744 30.0791H7.33496V39H8.27148V35.1787H10.2881C11.2588 35.1787 12.013 34.9691 12.5508 34.5498ZM11.8398 31.2959C12.2272 31.5693 12.4209 32.0137 12.4209 32.6289C12.4209 33.2441 12.2272 33.6908 11.8398 33.9688C11.4525 34.2422 10.9352 34.3789 10.2881 34.3789H8.27148V30.8789H10.2881C10.9352 30.8789 11.4525 31.0179 11.8398 31.2959ZM19.9062 39H21.0957L18.4092 35.1377C18.7829 35.1104 19.127 35.0329 19.4414 34.9053C19.7604 34.7777 20.0339 34.609 20.2617 34.3994C20.4896 34.1898 20.6696 33.9368 20.8018 33.6406C20.9339 33.3398 21 33.0026 21 32.6289C21 31.7812 20.7311 31.1455 20.1934 30.7217C19.6556 30.2933 18.8968 30.0791 17.917 30.0791H14.9775V39H15.9141V35.1787H17.3018L19.9062 39ZM19.4619 31.3027C19.8402 31.5807 20.0293 32.0228 20.0293 32.6289C20.0293 33.2441 19.8402 33.6908 19.4619 33.9688C19.0882 34.2422 18.5732 34.3789 17.917 34.3789H15.9141V30.8789H17.917C18.5732 30.8789 19.0882 31.0202 19.4619 31.3027ZM28.7109 36.2793C28.834 35.7233 28.8955 35.1468 28.8955 34.5498C28.8955 33.9528 28.8317 33.3763 28.7041 32.8203C28.5765 32.2643 28.3783 31.7721 28.1094 31.3438C27.8405 30.9154 27.4873 30.5736 27.0498 30.3184C26.6169 30.0586 26.0928 29.9287 25.4775 29.9287C24.8623 29.9287 24.3359 30.0586 23.8984 30.3184C23.4655 30.5736 23.11 30.9154 22.832 31.3438C22.5586 31.7721 22.3626 32.2643 22.2441 32.8203C22.1211 33.3763 22.0596 33.9528 22.0596 34.5498C22.0596 35.1468 22.1211 35.7233 22.2441 36.2793C22.3626 36.8353 22.5563 37.3252 22.8252 37.749C23.0986 38.1729 23.4518 38.5146 23.8848 38.7744C24.3223 39.0296 24.8532 39.1572 25.4775 39.1572C26.1019 39.1572 26.6305 39.0296 27.0635 38.7744C27.501 38.5146 27.8542 38.1729 28.123 37.749C28.3919 37.3252 28.5879 36.8353 28.7109 36.2793ZM27.7812 32.9639C27.8952 33.4333 27.9521 33.9619 27.9521 34.5498C27.9521 34.9964 27.9157 35.4476 27.8428 35.9033C27.7699 36.3545 27.6377 36.7624 27.4463 37.127C27.2549 37.487 26.9997 37.7832 26.6807 38.0156C26.3617 38.2435 25.9606 38.3574 25.4775 38.3574C24.9899 38.3574 24.5866 38.2435 24.2676 38.0156C23.9531 37.7832 23.7002 37.487 23.5088 37.127C23.3174 36.7624 23.1829 36.3545 23.1055 35.9033C23.0326 35.4476 22.9961 34.9964 22.9961 34.5498C22.9961 34.0986 23.0326 33.6475 23.1055 33.1963C23.1829 32.7451 23.3174 32.335 23.5088 31.9658C23.7002 31.5967 23.9531 31.2982 24.2676 31.0703C24.5866 30.8424 24.9899 30.7285 25.4775 30.7285C25.8695 30.7285 26.2181 30.8174 26.5234 30.9951C26.8333 31.1683 27.0931 31.4212 27.3027 31.7539C27.5124 32.0866 27.6719 32.4899 27.7812 32.9639ZM35.0205 39H35.9639V30.0791H34.7471L33.1064 34.7412L31.4795 30.0791H30.2627V39H31.1992V31.5693L32.7715 36.1699H33.4414L35.0205 31.5693V39ZM43.1211 34.5498C43.6589 34.1305 43.9277 33.4902 43.9277 32.6289C43.9277 31.7812 43.6589 31.1455 43.1211 30.7217C42.5833 30.2933 41.8245 30.0791 40.8447 30.0791H37.9053V39H38.8418V35.1787H40.8584C41.8291 35.1787 42.5833 34.9691 43.1211 34.5498ZM42.4102 31.2959C42.7975 31.5693 42.9912 32.0137 42.9912 32.6289C42.9912 33.2441 42.7975 33.6908 42.4102 33.9688C42.0228 34.2422 41.5055 34.3789 40.8584 34.3789H38.8418V30.8789H40.8584C41.5055 30.8789 42.0228 31.0179 42.4102 31.2959ZM50.7842 33.0938H51.584V30.0791H45.2129V33.0938H46.0127V30.8789H47.9268V38.2002H46.4844V39H50.3057V38.2002H48.8701V30.8789H50.7842V33.0938Z" fill="white"/>
<path d="M60.1433 0.285526V0H62.7935V0.285526H61.6353V3.4807H61.3015V0.285526H60.1433Z" fill="white"/>
<path d="M63.5449 0H63.9303L65.2564 3.03202H65.2885L66.6145 0H67V3.4807H66.6859V0.671327H66.6573L65.4241 3.4807H65.1207L63.8875 0.671327H63.859V3.4807H63.5449V0Z" fill="white"/>
</svg>
