<svg width="67" height="65" viewBox="0 0 67 65" fill="none" xmlns="http://www.w3.org/2000/svg">
<path fill-rule="evenodd" clip-rule="evenodd" d="M3.5847 8.71241H56.5586V60.7082H9.87586C10.6827 60.1333 11.6067 59.2945 12.648 58.192C14.8667 55.9307 17.064 52.5813 19.24 48.144C22.5253 41.488 24.3173 37.8827 24.616 37.328C24.7013 37.1147 24.8293 37.008 25 37.008C25.0853 37.008 25.1493 37.0293 25.192 37.072C27.9227 37.072 30.632 36.7307 33.32 36.048C36.008 35.3227 38.5253 34.2987 40.872 32.976C43.2613 31.6107 45.1813 29.7973 46.632 27.536C48.1253 25.232 48.872 22.6507 48.872 19.792C48.872 17.872 48.36 16.208 47.336 14.8C46.312 13.392 44.9253 12.3253 43.176 11.6C41.4693 10.832 39.6987 10.2773 37.864 9.936C36.072 9.59466 34.1733 9.424 32.168 9.424C28.0293 9.424 24.3173 10.32 21.032 12.112C17.7893 13.904 16.168 16.1227 16.168 18.768C16.168 19.4933 16.3387 20.2187 16.68 20.944C17.0213 21.6267 17.4053 22.1813 17.832 22.608C18.2587 23.0347 18.7493 23.44 19.304 23.824C19.8587 24.208 20.2427 24.464 20.456 24.592C20.6693 24.72 20.84 24.8053 20.968 24.848C21.224 24.9333 21.3947 24.976 21.48 24.976C21.8213 24.976 21.992 24.848 21.992 24.592C21.992 24.4213 21.8853 24.1227 21.672 23.696C21.032 22.5867 20.712 21.4347 20.712 20.24C20.712 18.2347 21.416 16.5067 22.824 15.056C24.2747 13.6053 25.9387 12.5813 27.816 11.984C29.736 11.3867 31.6987 11.088 33.704 11.088C36.3493 11.088 38.6533 11.7493 40.616 13.072C42.5787 14.3947 43.56 16.3573 43.56 18.96C43.56 20.7947 43.1547 22.6507 42.344 24.528C41.576 26.4053 40.4667 28.176 39.016 29.84C37.608 31.4613 35.752 32.784 33.448 33.808C31.1867 34.832 28.712 35.344 26.024 35.344C25.8533 35.344 25.768 35.28 25.768 35.152C25.768 35.0667 25.7893 34.9813 25.832 34.896C29.4587 27.9413 32.872 21.7333 36.072 16.272C36.584 15.5467 36.84 14.992 36.84 14.608C36.84 14.3093 36.5627 14.16 36.008 14.16C35.4107 14.16 34.792 14.3307 34.152 14.672C33.512 15.0133 32.9573 15.3973 32.488 15.824C32.0187 16.208 31.5493 16.6773 31.08 17.232C30.6533 17.7867 30.376 18.1707 30.248 18.384C30.12 18.5973 30.0133 18.768 29.928 18.896L28.52 21.2C27.5813 22.736 26.152 25.1467 24.232 28.432C22.312 31.6747 20.3493 35.0453 18.344 38.544C16.2107 42.2133 13.9067 46.416 11.432 51.152C9 55.888 7.54933 58.896 7.08 60.176L6.94694 60.7082H3.5847V8.71241ZM0 64.393V5.02767H60.1433V64.393H0Z" fill="white"/>
<path d="M60.1433 0.285526V0H62.7935V0.285526H61.6353V3.4807H61.3015V0.285526H60.1433Z" fill="white"/>
<path d="M63.5449 0H63.9303L65.2564 3.03202H65.2885L66.6145 0H67V3.4807H66.6859V0.671327H66.6573L65.4241 3.4807H65.1207L63.8875 0.671327H63.859V3.4807H63.5449V0Z" fill="white"/>
</svg>
