<svg width="559" height="21" viewBox="0 0 559 21" fill="none" xmlns="http://www.w3.org/2000/svg">
<path d="M1.16 8.94C1.16 4.82 3.64 1.68 7.82 1.68C12 1.68 14.46 4.82 14.46 8.94C14.46 13.08 12 16.22 7.82 16.22C3.64 16.22 1.16 13.08 1.16 8.94ZM3 8.94C3 12.26 4.58 14.64 7.82 14.64C11.06 14.64 12.64 12.26 12.64 8.94C12.64 5.64 11.06 3.26 7.82 3.26C4.58 3.26 3 5.64 3 8.94ZM23.608 1.9H25.428V8.26H33.468V1.9H35.288V16H33.468V9.84H25.428V16H23.608V1.9ZM37.6406 13.24C37.6406 11.66 38.6006 10.56 40.9606 10.34L44.8606 9.96C44.7806 8.16 43.9806 7.3 42.1806 7.3C40.8006 7.3 39.7806 7.94 39.6206 9.6H37.8606C38.0806 7.34 39.6206 5.86 42.2206 5.86C45.1006 5.86 46.6406 7.64 46.6406 10.32V14.48H48.1006V16H46.2806C45.5206 16 45.0806 15.56 45.0806 14.8V13.54C44.6206 14.94 43.4606 16.2 41.0006 16.2C38.0806 16.2 37.6406 14.28 37.6406 13.24ZM39.4006 13.02C39.4006 14.16 40.1406 14.74 41.2806 14.74C43.4406 14.74 44.8606 13.22 44.8606 11.22L41.2606 11.6C40.0406 11.72 39.4006 12.06 39.4006 13.02ZM49.4766 11.02C49.4766 8.12 51.3566 5.86 54.5766 5.86C56.5766 5.86 59.0366 6.98 59.2766 9.86H57.4966C57.2166 8.04 56.0166 7.38 54.5766 7.38C52.3366 7.38 51.2366 9.02 51.2366 11.02C51.2366 13.04 52.3366 14.68 54.5766 14.68C56.0166 14.68 57.2166 14.02 57.4966 12.2H59.2766C59.0366 15.08 56.5766 16.2 54.5766 16.2C51.3566 16.2 49.4766 13.94 49.4766 11.02Z" fill="white"/>
<path d="M110.44 1.9H121.34V16H119.52V3.46H112.26V16H110.44V1.9ZM123.877 19.72V6.06H125.657V8.48C126.357 6.92 127.777 5.86 129.917 5.86C132.777 5.86 134.577 8 134.577 11.04C134.577 14.06 132.777 16.2 129.917 16.2C127.717 16.2 126.317 15.1 125.657 13.58V19.72H123.877ZM125.697 11.04C125.697 13.46 127.397 14.68 129.337 14.68C131.277 14.68 132.817 13.52 132.817 11.04C132.817 8.54 131.277 7.38 129.337 7.38C127.397 7.38 125.697 8.58 125.697 11.04ZM136.582 11.02C136.582 8.08 138.682 5.86 141.862 5.86C145.022 5.86 147.122 8.08 147.122 11.02C147.122 13.98 145.022 16.2 141.862 16.2C138.682 16.2 136.582 13.98 136.582 11.02ZM138.342 11.02C138.342 13.04 139.582 14.68 141.862 14.68C144.122 14.68 145.362 13.04 145.362 11.02C145.362 9.02 144.122 7.38 141.862 7.38C139.582 7.38 138.342 9.02 138.342 11.02ZM149.199 10.9C149.199 7.68 151.119 5.86 153.959 5.86C156.899 5.86 158.819 7.64 158.819 10.72V11.36H150.919C150.979 13.3 151.999 14.78 154.059 14.78C155.759 14.78 156.759 13.9 157.099 12.52H158.859C158.459 14.36 157.139 16.2 154.079 16.2C150.839 16.2 149.199 13.84 149.199 10.9ZM150.939 10.1H157.079C156.959 8.3 155.739 7.26 153.959 7.26C152.319 7.26 151.079 8.3 150.939 10.1ZM161.24 6.06H163.02V10.28H163.62L166.48 6.8C166.9 6.3 167.34 6.06 168 6.06H169.58V7.58H167.98L165.18 10.94L169.82 16H167.64L163.7 11.7H163.02V16H161.24V6.06ZM171.207 6.06H180.487V7.58H176.727V16H174.967V7.58H171.207V6.06ZM186.567 8.84C188.927 8.84 190.887 9.6 190.887 12.42C190.887 15.24 188.927 16 186.567 16H182.607V6.06H184.387V8.84H186.567ZM184.387 14.52H186.367C188.007 14.52 189.107 14.32 189.107 12.42C189.107 10.54 188.007 10.32 186.367 10.32H184.387V14.52ZM193.067 16V6.06H194.847V16H193.067Z" fill="white"/>
<path d="M255.44 1.9H257.36L252.5 11.74V14.74C252.5 15.56 252.04 16 251.1 16L246.68 15.98V14.42L250.7 14.44V11.74L245.82 1.9H247.72L251.6 9.9L255.44 1.9ZM256.918 11.02C256.918 8.12 258.798 5.86 262.018 5.86C264.018 5.86 266.478 6.98 266.718 9.86H264.938C264.658 8.04 263.458 7.38 262.018 7.38C259.778 7.38 258.678 9.02 258.678 11.02C258.678 13.04 259.778 14.68 262.018 14.68C263.458 14.68 264.658 14.02 264.938 12.2H266.718C266.478 15.08 264.018 16.2 262.018 16.2C258.798 16.2 256.918 13.94 256.918 11.02ZM277.857 6.06V16H276.077V7.58H272.277C272.237 12.96 271.937 16 268.597 16V14.48C270.497 14.48 270.497 11.7 270.497 6.06H277.857ZM288.158 6.06H290.118L285.778 15.86V18.76C285.778 19.5 285.418 19.9 284.658 19.9H280.438V18.34H283.998V15.86L279.638 6.06H281.558L284.878 13.82L288.158 6.06ZM291.83 7.44C291.83 6.5 292.29 6.06 293.23 6.06H298.85V7.58H293.61V16H291.83V7.44ZM310.398 16H308.718V6.68L303.718 16H300.638V6.06H302.318V15.34L307.338 6.06H310.398V16Z" fill="white"/>
<path d="M361.44 16V1.9H364.82L369.1 15.34L373.38 1.9H376.7V16H374.88V2.64L370.54 16H367.62L363.26 2.64V16H361.44ZM379.105 10.9C379.105 7.68 381.025 5.86 383.865 5.86C386.805 5.86 388.725 7.64 388.725 10.72V11.36H380.825C380.885 13.3 381.905 14.78 383.965 14.78C385.665 14.78 386.665 13.9 387.005 12.52H388.765C388.365 14.36 387.045 16.2 383.985 16.2C380.745 16.2 379.105 13.84 379.105 10.9ZM380.845 10.1H386.985C386.865 8.3 385.645 7.26 383.865 7.26C382.225 7.26 380.985 8.3 380.845 10.1ZM391.146 19.72V6.06H392.926V8.48C393.626 6.92 395.046 5.86 397.186 5.86C400.046 5.86 401.846 8 401.846 11.04C401.846 14.06 400.046 16.2 397.186 16.2C394.986 16.2 393.586 15.1 392.926 13.58V19.72H391.146ZM392.966 11.04C392.966 13.46 394.666 14.68 396.606 14.68C398.546 14.68 400.086 13.52 400.086 11.04C400.086 8.54 398.546 7.38 396.606 7.38C394.666 7.38 392.966 8.58 392.966 11.04ZM404.114 6.06H405.874V10.98H411.714V6.06H413.474V16H411.714V12.54H405.234C404.474 12.54 404.114 12.22 404.114 11.54V6.06Z" fill="white"/>
<path d="M464.44 16V1.9H466.26V8.14H467.2L471.72 2.66C472.14 2.18 472.56 1.88 473.24 1.88H475.66V3.44H473.24L468.84 8.82L475.58 16H473.22L467.12 9.56H466.26V16H464.44ZM476.207 11.02C476.207 8.08 478.307 5.86 481.487 5.86C484.647 5.86 486.747 8.08 486.747 11.02C486.747 13.98 484.647 16.2 481.487 16.2C478.307 16.2 476.207 13.98 476.207 11.02ZM477.967 11.02C477.967 13.04 479.207 14.68 481.487 14.68C483.747 14.68 484.987 13.04 484.987 11.02C484.987 9.02 483.747 7.38 481.487 7.38C479.207 7.38 477.967 9.02 477.967 11.02ZM489.146 6.06H490.926V10.26H496.446V6.06H498.206V16H496.446V11.78H490.926V16H489.146V6.06ZM500.324 6.06H509.604V7.58H505.844V16H504.084V7.58H500.324V6.06ZM510.895 13.24C510.895 11.66 511.855 10.56 514.215 10.34L518.115 9.96C518.035 8.16 517.235 7.3 515.435 7.3C514.055 7.3 513.035 7.94 512.875 9.6H511.115C511.335 7.34 512.875 5.86 515.475 5.86C518.355 5.86 519.895 7.64 519.895 10.32V14.48H521.355V16H519.535C518.775 16 518.335 15.56 518.335 14.8V13.54C517.875 14.94 516.715 16.2 514.255 16.2C511.335 16.2 510.895 14.28 510.895 13.24ZM512.655 13.02C512.655 14.16 513.395 14.74 514.535 14.74C516.695 14.74 518.115 13.22 518.115 11.22L514.515 11.6C513.295 11.72 512.655 12.06 512.655 13.02ZM523.209 6.06H524.989V10.28H525.589L528.449 6.8C528.869 6.3 529.309 6.06 529.969 6.06H531.549V7.58H529.949L527.149 10.94L531.789 16H529.609L525.669 11.7H524.989V16H523.209V6.06ZM533.176 6.06H542.456V7.58H538.696V16H536.936V7.58H533.176V6.06ZM548.536 8.84C550.896 8.84 552.856 9.6 552.856 12.42C552.856 15.24 550.896 16 548.536 16H544.576V6.06H546.356V8.84H548.536ZM546.356 14.52H548.336C549.976 14.52 551.076 14.32 551.076 12.42C551.076 10.54 549.976 10.32 548.336 10.32H546.356V14.52ZM555.036 16V6.06H556.816V16H555.036Z" fill="white"/>
</svg>
