<svg width="281" height="45" viewBox="0 0 281 45" fill="none" xmlns="http://www.w3.org/2000/svg">
<rect x="0.5" y="0.5" width="280" height="44" rx="22" stroke="white"/>
<path d="M68.44 13.9H70.26V20.26H78.3V13.9H80.12V28H78.3V21.84H70.26V28H68.44V13.9ZM82.4727 25.24C82.4727 23.66 83.4327 22.56 85.7927 22.34L89.6927 21.96C89.6127 20.16 88.8127 19.3 87.0127 19.3C85.6327 19.3 84.6127 19.94 84.4527 21.6H82.6927C82.9127 19.34 84.4527 17.86 87.0527 17.86C89.9327 17.86 91.4727 19.64 91.4727 22.32V26.48H92.9327V28H91.1127C90.3527 28 89.9127 27.56 89.9127 26.8V25.54C89.4527 26.94 88.2927 28.2 85.8327 28.2C82.9127 28.2 82.4727 26.28 82.4727 25.24ZM84.2327 25.02C84.2327 26.16 84.9727 26.74 86.1127 26.74C88.2727 26.74 89.6927 25.22 89.6927 23.22L86.0927 23.6C84.8727 23.72 84.2327 24.06 84.2327 25.02ZM94.0636 18.06H95.8236V22.98H101.664V18.06H103.424V28H101.664V24.54H95.1836C94.4236 24.54 94.0636 24.22 94.0636 23.54V18.06ZM105.832 25.24C105.832 23.66 106.792 22.56 109.152 22.34L113.052 21.96C112.972 20.16 112.172 19.3 110.372 19.3C108.992 19.3 107.972 19.94 107.812 21.6H106.052C106.272 19.34 107.812 17.86 110.412 17.86C113.292 17.86 114.832 19.64 114.832 22.32V26.48H116.292V28H114.472C113.712 28 113.272 27.56 113.272 26.8V25.54C112.812 26.94 111.652 28.2 109.192 28.2C106.272 28.2 105.832 26.28 105.832 25.24ZM107.592 25.02C107.592 26.16 108.332 26.74 109.472 26.74C111.632 26.74 113.052 25.22 113.052 23.22L109.452 23.6C108.232 23.72 107.592 24.06 107.592 25.02ZM116.512 18.06H125.792V19.58H122.032V28H120.272V19.58H116.512V18.06ZM131.872 20.84C134.232 20.84 136.192 21.6 136.192 24.42C136.192 27.24 134.232 28 131.872 28H127.912V18.06H129.692V20.84H131.872ZM129.692 26.52H131.672C133.312 26.52 134.412 26.32 134.412 24.42C134.412 22.54 133.312 22.32 131.672 22.32H129.692V26.52ZM145.119 18.06H153.519V28H151.759V19.58H146.899V28H145.119V18.06ZM156.056 31.72V18.06H157.836V20.48C158.536 18.92 159.956 17.86 162.096 17.86C164.956 17.86 166.756 20 166.756 23.04C166.756 26.06 164.956 28.2 162.096 28.2C159.896 28.2 158.496 27.1 157.836 25.58V31.72H156.056ZM157.876 23.04C157.876 25.46 159.576 26.68 161.516 26.68C163.456 26.68 164.996 25.52 164.996 23.04C164.996 20.54 163.456 19.38 161.516 19.38C159.576 19.38 157.876 20.58 157.876 23.04ZM168.762 23.02C168.762 20.08 170.862 17.86 174.042 17.86C177.202 17.86 179.302 20.08 179.302 23.02C179.302 25.98 177.202 28.2 174.042 28.2C170.862 28.2 168.762 25.98 168.762 23.02ZM170.522 23.02C170.522 25.04 171.762 26.68 174.042 26.68C176.302 26.68 177.542 25.04 177.542 23.02C177.542 21.02 176.302 19.38 174.042 19.38C171.762 19.38 170.522 21.02 170.522 23.02ZM181.379 22.9C181.379 19.68 183.299 17.86 186.139 17.86C189.079 17.86 190.999 19.64 190.999 22.72V23.36H183.099C183.159 25.3 184.179 26.78 186.239 26.78C187.939 26.78 188.939 25.9 189.279 24.52H191.039C190.639 26.36 189.319 28.2 186.259 28.2C183.019 28.2 181.379 25.84 181.379 22.9ZM183.119 22.1H189.259C189.139 20.3 187.919 19.26 186.139 19.26C184.499 19.26 183.259 20.3 183.119 22.1ZM193.42 18.06H195.2V22.28H195.8L198.66 18.8C199.08 18.3 199.52 18.06 200.18 18.06H201.76V19.58H200.16L197.36 22.94L202 28H199.82L195.88 23.7H195.2V28H193.42V18.06ZM203.387 18.06H212.667V19.58H208.907V28H207.147V19.58H203.387V18.06Z" fill="white"/>
</svg>
